<?xml version="1.0" encoding="UTF-8" standalone="no"?>
<svg
   xmlns:dc="http://purl.org/dc/elements/1.1/"
   xmlns:cc="http://creativecommons.org/ns#"
   xmlns:rdf="http://www.w3.org/1999/02/22-rdf-syntax-ns#"
   xmlns:svg="http://www.w3.org/2000/svg"
   xmlns="http://www.w3.org/2000/svg"
   xmlns:sodipodi="http://sodipodi.sourceforge.net/DTD/sodipodi-0.dtd"
   xmlns:inkscape="http://www.inkscape.org/namespaces/inkscape"
   version="1.1"
   id="Capa_1"
   x="0px"
   y="0px"
   viewBox="0 0 61.433 61.433"
   style="enable-background:new 0 0 61.433 61.433;"
   xml:space="preserve"
   sodipodi:docname="active-worker-at-work.svg"
   inkscape:version="1.0 (4035a4fb49, 2020-05-01)"
   inkscape:export-filename="C:\Users\heavy\Source\RestLittle\src\RestLittle.UI\active-worker-at-work.png"
   inkscape:export-xdpi="400.04559"
   inkscape:export-ydpi="400.04559"><metadata
   id="metadata65"><rdf:RDF><cc:Work
       rdf:about=""><dc:format>image/svg+xml</dc:format><dc:type
         rdf:resource="http://purl.org/dc/dcmitype/StillImage" /><dc:title /></cc:Work></rdf:RDF></metadata><defs
   id="defs63">
		
		
		
		
		
		
		
		
		
		
		
		
	</defs><sodipodi:namedview
   inkscape:document-rotation="0"
   pagecolor="#ffffff"
   bordercolor="#666666"
   borderopacity="1"
   objecttolerance="10"
   gridtolerance="10"
   guidetolerance="10"
   inkscape:pageopacity="0"
   inkscape:pageshadow="2"
   inkscape:window-width="1920"
   inkscape:window-height="1017"
   id="namedview61"
   showgrid="false"
   inkscape:zoom="11.313708"
   inkscape:cx="48.532854"
   inkscape:cy="24.729851"
   inkscape:window-x="-8"
   inkscape:window-y="-8"
   inkscape:window-maximized="1"
   inkscape:current-layer="g28"
   inkscape:lockguides="false" />
<g
   id="g28"
   style="display:inline">
	<polygon
   id="polygon2"
   points="0,20.91 0,26.794 3.084,26.794 3.084,55.286 23.644,55.286 23.644,26.794 26.728,26.794 26.728,20.91 "
   style="fill:#666666;stroke:#000000;stroke-opacity:1;stroke-width:0.001;stroke-miterlimit:4;stroke-dasharray:none"
   transform="translate(0.26516505)"
   inkscape:export-filename="C:\Users\heavy\Source\RestLittle\src\RestLittle.UI\polygon2.png"
   inkscape:export-xdpi="96"
   inkscape:export-ydpi="96" /><path
   id="path6"
   d="m 55.535299,5.6564114 c -0.123,-3.086 -2.653,-5.55299999 -5.769,-5.55299999 -3.116,0 -5.648,2.46699999 -5.771,5.55299999 h -0.011 c 0,0.039 0.007,0.076 0.007,0.115 0,0.038 -0.007,0.075 -0.007,0.115 h 0.012 c 0.123,3.085 2.655,5.5519996 5.769,5.5519996 3.116,0 5.648,-2.4669996 5.771,-5.5519996 h 0.012 c 0,-0.04 -0.005,-0.077 -0.007,-0.115 10e-4,-0.039 0.007,-0.076 0.007,-0.115 z"
   style="fill:#b3b3b3;stroke:#000000;stroke-width:0.001;stroke-miterlimit:4;stroke-dasharray:none;stroke-opacity:1" /><path
   d="m 58.704581,16.554688 c -0.101541,-0.0073 -0.204094,-0.0045 -0.308594,0.0098 -0.846,0.105 -1.444844,0.875703 -1.339844,1.720703 0.102,0.813 0.220797,1.644375 0.341797,2.484375 0.332,2.309 0.673828,4.695938 0.673828,6.960938 0,0.05 0.0018,0.09944 0.0078,0.148437 1.23,12.766 -3.566094,13.349391 -9.121094,14.025391 -4.369,0.531 -9.805439,1.194484 -9.773437,9.271484 0,0.85 0.691015,1.53711 1.541015,1.53711 h 0.0039 c 0.853,-0.004 1.54111,-0.695828 1.53711,-1.548829 -0.018,-5.109 2.279453,-5.617218 7.064453,-6.199218 0.287,-0.033 0.578047,-0.06942 0.873047,-0.107422 v 6.429687 l -5.023438,2.382813 c -0.385,0.183 -0.548328,0.64239 -0.361328,1.02539 0.131,0.277001 0.404359,0.439454 0.693359,0.439454 0.111,0 0.226079,-0.02222 0.330079,-0.07422 l 5.007812,-2.373047 4.587891,2.361328 c 0.113,0.061 0.234515,0.08594 0.353515,0.08594 0.279,0 0.5525,-0.150969 0.6875,-0.417969 0.195,-0.38 0.04692,-0.84411 -0.330078,-1.037109 l -4.40039,-2.267579 v -6.783203 c 5.15,-0.885 10.691203,-3.446656 9.408203,-16.972656 -0.01,-2.461 -0.363031,-4.933219 -0.707032,-7.324219 -0.116998,-0.823 -0.233984,-1.635687 -0.333984,-2.429687 -0.09188,-0.74025 -0.701322,-1.296279 -1.412109,-1.347656 z"
   style="fill:#666666;stroke:#000000;stroke-width:0.001;stroke-miterlimit:4;stroke-dasharray:none;stroke-opacity:1"
   id="path8" /><rect
   ry="0.029338352"
   y="19.586287"
   x="3.840672"
   height="1.1202488"
   width="7.6407685"
   id="rect67"
   style="fill:#666666;stroke-width:0.00062777;stroke:#000000;stroke-opacity:1;stroke-miterlimit:4;stroke-dasharray:none" /><rect
   ry="0.24918813"
   y="5.8773403"
   x="7.0906444"
   height="13.550513"
   width="1.0826069"
   id="rect71"
   style="fill:#666666;stroke-width:0.00181074;stroke:#000000;stroke-opacity:1;stroke-miterlimit:4;stroke-dasharray:none" /><rect
   ry="0.074580543"
   y="0.084100917"
   x="8.5346222"
   height="15.102566"
   width="1.8397986"
   id="rect2671"
   style="fill:#666666;stroke-width:0.0001;stroke:#000000;stroke-opacity:1;opacity:1;stroke-miterlimit:4;stroke-dasharray:none" /><path
   id="path2690"
   style="fill:#b3b3b3;stroke:#000000;stroke-width:0.001;stroke-miterlimit:4;stroke-dasharray:none;stroke-opacity:1"
   d="m 50.358723,12.256855 c -8.83647,1.648766 -3.745532,11.337871 -5.209301,18.12933 -6.804142,3.087686 -11.858716,7.109777 -15.042901,13.304078 -3.677323,8.852191 -0.460747,13.256141 4.838031,10.471766 2.215332,-6.251107 4.825659,-14.119981 11.268338,-15.840987 2.041356,-0.752102 4.304301,-0.26441 6.321278,-1.008863 1.769756,-0.805456 2.590981,-2.946403 2.234281,-4.78972 -0.411545,-6.859487 0.885827,-10.989393 -0.33329,-17.166857 -0.840834,-2.329225 -2.060843,-3.474829 -4.076436,-3.098747 z"
   sodipodi:nodetypes="scccccccs" />
</g>
<g
   id="g30">
</g>
<g
   id="g32">
</g>
<g
   id="g34">
</g>
<g
   id="g36">
</g>
<g
   id="g38">
</g>
<g
   id="g40">
</g>
<g
   id="g42">
</g>
<g
   id="g44">
</g>
<g
   id="g46">
</g>
<g
   id="g48">
</g>
<g
   id="g50">
</g>
<g
   id="g52">
</g>
<g
   id="g54">
</g>
<g
   id="g56">
</g>
<g
   id="g58">
</g>
</svg>
