<?xml version="1.0" encoding="UTF-8" standalone="no"?>
<svg
   xmlns:dc="http://purl.org/dc/elements/1.1/"
   xmlns:cc="http://creativecommons.org/ns#"
   xmlns:rdf="http://www.w3.org/1999/02/22-rdf-syntax-ns#"
   xmlns:svg="http://www.w3.org/2000/svg"
   xmlns="http://www.w3.org/2000/svg"
   xmlns:sodipodi="http://sodipodi.sourceforge.net/DTD/sodipodi-0.dtd"
   xmlns:inkscape="http://www.inkscape.org/namespaces/inkscape"
   inkscape:export-ydpi="400.04559"
   inkscape:export-xdpi="400.04559"
   inkscape:export-filename="C:\Users\heavy\Source\RestLittle\src\RestLittle.UI\Assets\resting-worker-at-work.png"
   inkscape:version="1.0 (4035a4fb49, 2020-05-01)"
   sodipodi:docname="resting-worker-at-work.svg"
   xml:space="preserve"
   style="enable-background:new 0 0 61.433 61.433;"
   viewBox="0 0 61.433 61.433"
   y="0px"
   x="0px"
   id="Capa_1"
   version="1.1"><metadata
   id="metadata65"><rdf:RDF><cc:Work
       rdf:about=""><dc:format>image/svg+xml</dc:format><dc:type
         rdf:resource="http://purl.org/dc/dcmitype/StillImage" /><dc:title></dc:title></cc:Work></rdf:RDF></metadata><defs
   id="defs63">
		
		
		
		
		
		
		
		
		
		
		
		
	</defs><sodipodi:namedview
   inkscape:lockguides="false"
   inkscape:current-layer="g28"
   inkscape:window-maximized="1"
   inkscape:window-y="-8"
   inkscape:window-x="-8"
   inkscape:cy="25.099236"
   inkscape:cx="43.795915"
   inkscape:zoom="5.6568543"
   showgrid="false"
   id="namedview61"
   inkscape:window-height="1017"
   inkscape:window-width="1920"
   inkscape:pageshadow="2"
   inkscape:pageopacity="0"
   guidetolerance="10"
   gridtolerance="10"
   objecttolerance="10"
   borderopacity="1"
   bordercolor="#666666"
   pagecolor="#ffffff"
   inkscape:document-rotation="0" />
<g
   style="display:inline"
   id="g28">
	<path
   d="m 42.402135,45.284237 -0.06629,6.164522 -5.023439,2.382813 c -0.385,0.183 -0.548328,0.64239 -0.361328,1.02539 0.131,0.277001 0.404359,0.439454 0.693359,0.439454 0.111,0 0.226079,-0.02222 0.330079,-0.07422 l 5.007813,-2.373047 4.587891,2.361328 c 0.113,0.061 0.234515,0.08594 0.353515,0.08594 0.279,0 0.5525,-0.150969 0.6875,-0.417969 0.195,-0.38 0.04692,-0.84411 -0.330078,-1.037109 l -4.40039,-2.267579 0.06629,-6.518038 c -0.17918,-0.403082 -1.537309,-0.479416 -1.544922,0.228515 z m 16.9809,-20.859327 c -0.08263,-0.05947 -0.171412,-0.110872 -0.267886,-0.153503 -0.775379,-0.3543 -1.689462,-0.01217 -2.043237,0.762352 -0.339546,0.745709 -0.674428,1.515872 -1.011958,2.294534 -0.928322,2.140075 -1.889152,4.351664 -3.077071,6.280154 -0.02622,0.04257 -0.05062,0.08561 -0.07121,0.130474 -5.648098,11.514454 -10.037607,9.495773 -15.121842,7.157921 -3.998391,-1.839291 -8.975116,-4.125618 -13.183996,2.768167 -0.445797,0.723716 -0.217813,1.671158 0.505902,2.116955 l 0.0033,0.002 c 0.728368,0.443965 1.677087,0.215813 2.121053,-0.512555 2.664181,-4.359398 4.886846,-3.587169 9.266179,-1.573123 0.684421,0.29516 0,0 1.793465,0.814006 4.84902,1.947494 11.351927,2.840724 17.353495,-9.348614 1.282201,-2.100614 2.27822,-4.39069 3.23933,-6.606877 0.332021,-0.762088 0.658644,-1.51539 0.989928,-2.243872 0.310008,-0.678459 0.08273,-1.471512 -0.49551,-1.888041 z"
   style="display:inline;fill:#666666;stroke:#000000;stroke-width:0.001;stroke-miterlimit:4;stroke-dasharray:none;stroke-opacity:1"
   id="path8-8" /><polygon
   inkscape:export-ydpi="96"
   inkscape:export-xdpi="96"
   inkscape:export-filename="C:\Users\heavy\Source\RestLittle\src\RestLittle.UI\polygon2.png"
   transform="translate(0.26516505)"
   style="fill:#666666;stroke:#000000;stroke-opacity:1;stroke-width:0.001;stroke-miterlimit:4;stroke-dasharray:none"
   points="0,20.91 0,26.794 3.084,26.794 3.084,55.286 23.644,55.286 23.644,26.794 26.728,26.794 26.728,20.91 "
   id="polygon2" /><rect
   style="fill:#666666;stroke-width:0.00062777;stroke:#000000;stroke-opacity:1;stroke-miterlimit:4;stroke-dasharray:none"
   id="rect67"
   width="7.6407685"
   height="1.1202488"
   x="3.840672"
   y="19.586287"
   ry="0.029338352" /><rect
   style="fill:#666666;stroke-width:0.00181074;stroke:#000000;stroke-opacity:1;stroke-miterlimit:4;stroke-dasharray:none"
   id="rect71"
   width="1.0826069"
   height="13.550513"
   x="7.0906444"
   y="5.8773403"
   ry="0.24918813" /><rect
   style="fill:#666666;stroke-width:0.0001;stroke:#000000;stroke-opacity:1;opacity:1;stroke-miterlimit:4;stroke-dasharray:none"
   id="rect2671"
   width="1.8397986"
   height="15.102566"
   x="8.5346222"
   y="0.084100917"
   ry="0.074580543" />
<path
   inkscape:transform-center-y="1.4142136"
   inkscape:transform-center-x="-4.2426408"
   style="fill:#b3b3b3;stroke:#000000;stroke-width:0.001;stroke-miterlimit:4;stroke-dasharray:none;stroke-opacity:1"
   d="M 61.821117,13.323042 C 63.067492,10.497254 61.879846,7.1691188 59.081194,5.7990808 56.282542,4.4290427 52.923726,5.5315257 51.456406,8.2491524 l -0.0099,-0.00484 c -0.01715,0.035028 -0.02713,0.071338 -0.04428,0.1063656 -0.01671,0.03413 -0.03926,0.064284 -0.05685,0.1002101 l 0.01078,0.00528 c -1.245935,2.8248889 -0.05649,6.1539029 2.740363,7.5230619 2.798652,1.370038 6.157467,0.267556 7.624348,-2.449173 l 0.01078,0.0053 c 0.01759,-0.03593 0.02936,-0.07136 0.04428,-0.106365 0.01805,-0.03459 0.0397,-0.06518 0.05685,-0.10021 z"
   id="path6" /><path
   sodipodi:nodetypes="acsszssczszaaaa"
   d="m 50.439434,18.389987 c -3.535406,4.238557 -3.678289,11.744414 -6.402637,15.270442 -3.457246,-0.139824 -8.41211,-9.693345 -11.554586,-15.344933 -3.201351,-5.757471 -8.627255,-4.435913 -10.26175,-4.328936 -3.434603,0.224793 -3.121923,4.035639 -1.358437,5.494057 1.763486,1.458417 2.399002,0.741115 5.310409,0.85522 1.455703,0.05705 4.210011,5.635235 5.991779,9.523804 1.781767,3.888568 3.590993,5.650023 4.406534,9.38612 4.726224,2.559509 6.394651,3.294501 7.987086,2.535086 1.592436,-0.759415 3.816293,-3.109394 4.88004,-5.109034 1.685842,-3.169062 4.117249,-12.110234 5.507371,-13.371704 1.390122,-1.261469 2.348783,-1.704326 2.579545,-3.003795 0.152105,-0.856536 -0.290712,-1.838059 -0.914629,-2.44429 -0.885739,-0.860632 -2.280406,-1.350972 -3.505913,-1.198152 -1.052005,0.131185 -1.985748,0.921993 -2.664812,1.736115 z"
   style="fill:#b3b3b3;stroke:#000000;stroke-width:0.001;stroke-miterlimit:4;stroke-dasharray:none;stroke-opacity:1"
   id="path2690" /><path
   sodipodi:nodetypes="sssss"
   d="m 55.830827,41.01742 c 0.0707,1.902186 -5.104729,3.418523 -4.610965,1.58018 1.798783,-6.697078 0.644764,-19.55926 0.587763,-21.804918 -0.0483,-1.902887 3.542143,-2.571791 5.251782,-1.734863 1.709638,0.836928 -1.443867,16.167467 -1.22858,21.959601 z"
   style="fill:#b3b3b3;fill-opacity:1;stroke:#666666;stroke-width:0.00211086"
   id="path30" /></g>
<g
   id="g30">
</g>
<g
   id="g32">
</g>
<g
   id="g34">
</g>
<g
   id="g36">
</g>
<g
   id="g38">
</g>
<g
   id="g40">
</g>
<g
   id="g42">
</g>
<g
   id="g44">
</g>
<g
   id="g46">
</g>
<g
   id="g48">
</g>
<g
   id="g50">
</g>
<g
   id="g52">
</g>
<g
   id="g54">
</g>
<g
   id="g56">
</g>
<g
   id="g58">
</g>
</svg>
