<?xml version="1.0" encoding="UTF-8" standalone="no"?>
<svg
   xmlns:dc="http://purl.org/dc/elements/1.1/"
   xmlns:cc="http://creativecommons.org/ns#"
   xmlns:rdf="http://www.w3.org/1999/02/22-rdf-syntax-ns#"
   xmlns:svg="http://www.w3.org/2000/svg"
   xmlns="http://www.w3.org/2000/svg"
   xmlns:sodipodi="http://sodipodi.sourceforge.net/DTD/sodipodi-0.dtd"
   xmlns:inkscape="http://www.inkscape.org/namespaces/inkscape"
   inkscape:export-ydpi="400.04559"
   inkscape:export-xdpi="400.04559"
   inkscape:export-filename="C:\Users\heavy\Source\RestLittle\src\RestLittle.UI\Assets\sleepy-worker-at-work.png"
   version="1.1"
   id="Capa_1"
   x="0px"
   y="0px"
   viewBox="0 0 61.433 61.433"
   style="enable-background:new 0 0 61.433 61.433;"
   xml:space="preserve"
   sodipodi:docname="sleepy-worker-at-work.svg"
   inkscape:version="1.0 (4035a4fb49, 2020-05-01)"><metadata
   id="metadata65"><rdf:RDF><cc:Work
       rdf:about=""><dc:format>image/svg+xml</dc:format><dc:type
         rdf:resource="http://purl.org/dc/dcmitype/StillImage" /></cc:Work></rdf:RDF></metadata><defs
   id="defs63" /><sodipodi:namedview
   inkscape:document-rotation="0"
   pagecolor="#ffffff"
   bordercolor="#666666"
   borderopacity="1"
   objecttolerance="10"
   gridtolerance="10"
   guidetolerance="10"
   inkscape:pageopacity="0"
   inkscape:pageshadow="2"
   inkscape:window-width="1920"
   inkscape:window-height="1017"
   id="namedview61"
   showgrid="false"
   inkscape:zoom="6.9181061"
   inkscape:cx="6.3872862"
   inkscape:cy="18.395831"
   inkscape:window-x="-8"
   inkscape:window-y="-8"
   inkscape:window-maximized="1"
   inkscape:current-layer="g26" />
<g
   id="g28">
	<g
   id="g26">
		<polygon
   style="fill:#666666;stroke:#666666;stroke-opacity:1"
   points="0,26.794 3.084,26.794 3.084,55.286 23.644,55.286 23.644,26.794 26.728,26.794     26.728,20.91 0,20.91   "
   id="polygon2" />
		<path
   style="fill:#b3b3b3"
   d="M50.838,37.68c3.107-0.057,4.447-2.825,4.02-5.184c0.24-1,0.229-2.052-0.131-3.065    c-3.174-8.959-9.608-15.217-18.35-18.76c-3.318-1.345-7.189,1.453-8.051,4.592c-0.317,1.155-0.315,2.235-0.066,3.216v15.059    c0,1.965,1.594,3.56,3.561,3.56c0.609,0,1.177-0.167,1.679-0.438c-2.941,3.293-4.955,7.557-5.768,12.616    c-0.856,5.349,7.314,7.644,8.18,2.254C37.264,43.081,42.02,37.844,50.838,37.68z M34.969,35.165c0.254-0.49,0.41-1.037,0.41-1.627    v-8.927c2.572,1.668,4.678,4.086,5.939,6.519C38.939,32.12,36.809,33.474,34.969,35.165z"
   id="path4" />
		<path
   style="fill:#b3b3b3"
   d="M27.051,14.322c-0.123-3.086-2.653-5.553-5.769-5.553s-5.648,2.467-5.771,5.553H15.5    c0,0.039,0.007,0.076,0.007,0.115c0,0.038-0.007,0.075-0.007,0.115h0.012c0.123,3.085,2.655,5.552,5.769,5.552    c3.116,0,5.648-2.467,5.771-5.552h0.012c0-0.04-0.005-0.077-0.007-0.115c0.001-0.039,0.007-0.076,0.007-0.115H27.051z"
   id="path6" />
		<path
   style="fill:#666666"
   d="M61.246,27.657c-0.01-2.461-0.363-4.934-0.707-7.325c-0.117-0.823-0.234-1.635-0.334-2.429    c-0.105-0.846-0.885-1.453-1.721-1.339c-0.846,0.105-1.445,0.876-1.34,1.721c0.102,0.813,0.221,1.644,0.342,2.484    c0.332,2.309,0.674,4.696,0.674,6.961c0,0.05,0.002,0.099,0.008,0.148c1.23,12.766-3.566,13.351-9.121,14.027    c-4.369,0.531-9.805,1.194-9.773,9.271c0,0.85,0.691,1.537,1.541,1.537h0.004c0.853-0.004,1.541-0.696,1.537-1.549    c-0.018-5.109,2.279-5.617,7.064-6.199c0.287-0.033,0.578-0.07,0.873-0.108v6.431L45.27,53.67    c-0.385,0.183-0.549,0.642-0.362,1.025c0.131,0.277,0.405,0.44,0.694,0.44c0.111,0,0.226-0.023,0.33-0.075l5.008-2.373    l4.588,2.361c0.113,0.061,0.234,0.087,0.353,0.087c0.279,0,0.552-0.151,0.687-0.418c0.195-0.38,0.047-0.845-0.33-1.038l-4.4-2.266    v-6.785C56.988,43.743,62.529,41.183,61.246,27.657z"
   id="path8" />
		
		
		
		
		
		
		
		
	<rect
   style="fill:#666666;stroke-width:0.627771"
   id="rect67"
   width="7.6407685"
   height="1.1202488"
   x="3.840672"
   y="19.586287"
   ry="0.029338352" /><rect
   style="fill:#666666;stroke-width:1.81074"
   id="rect71"
   width="1.0826069"
   height="13.550513"
   x="7.0906444"
   y="5.8773403"
   ry="0.24918813" /><rect
   style="fill:#666666;stroke-width:0.815487;fill-opacity:1"
   id="rect2671"
   width="1.8397986"
   height="15.102566"
   x="8.5346222"
   y="0.084100917"
   ry="0.074580543" /></g>
</g>
<g
   id="g30">
</g>
<g
   id="g32">
</g>
<g
   id="g34">
</g>
<g
   id="g36">
</g>
<g
   id="g38">
</g>
<g
   id="g40">
</g>
<g
   id="g42">
</g>
<g
   id="g44">
</g>
<g
   id="g46">
</g>
<g
   id="g48">
</g>
<g
   id="g50">
</g>
<g
   id="g52">
</g>
<g
   id="g54">
</g>
<g
   id="g56">
</g>
<g
   id="g58">
</g>
</svg>
